# xmcd CD database file
#
# Track frame offsets:
#	182
#	15390
#	34317
#	51020
#
# Disc length: 866 seconds
#
# Revision: 0
# Processed by: cddbd v1.5.1PL0 Copyright (c) Steve Scherf et al.
# Submitted via: CDex 1.50
#
DISCID=27036004
DTITLE=El reto - Leichenwagenfahrer (single)
DYEAR=1998
DGENRE=Salsa
TTITLE0=Leichenfahrer
TTITLE1=Fensterplatz
TTITLE2=Wo ist die Eins?
TTITLE3=Susi
EXTD=YEAR: 1998
EXTT0=
EXTT1=
EXTT2=
EXTT3=
PLAYORDER=
